<mxfile host="app.diagrams.net" modified="2024-06-14T14:59:55.320Z" agent="Mozilla/5.0 (Macintosh; Intel Mac OS X 10_15_7) AppleWebKit/537.36 (KHTML, like Gecko) Chrome/125.0.0.0 Safari/537.36" etag="4NIHq2J0sxYFji8qzIlp" version="24.5.4" type="github">
  <diagram id="prtHgNgQTEPvFCAcTncT" name="Page-1">
    <mxGraphModel dx="1242" dy="786" grid="1" gridSize="10" guides="1" tooltips="1" connect="1" arrows="1" fold="1" page="1" pageScale="1" pageWidth="827" pageHeight="1169" math="0" shadow="0">
      <root>
        <mxCell id="0" />
        <mxCell id="1" parent="0" />
        <mxCell id="tU8QPCNGm-OaERnpYdXL-3" value="" style="swimlane;startSize=20;horizontal=0;childLayout=treeLayout;horizontalTree=1;sortEdges=1;resizable=0;containerType=tree;fontSize=12;" vertex="1" parent="1">
          <mxGeometry x="170" y="230" width="460" height="320" as="geometry" />
        </mxCell>
        <mxCell id="tU8QPCNGm-OaERnpYdXL-4" value="公司名称：？" style="whiteSpace=wrap;html=1;" vertex="1" parent="tU8QPCNGm-OaERnpYdXL-3">
          <mxGeometry x="40" y="140" width="100" height="40" as="geometry" />
        </mxCell>
        <mxCell id="tU8QPCNGm-OaERnpYdXL-5" value="使命" style="whiteSpace=wrap;html=1;" vertex="1" parent="tU8QPCNGm-OaERnpYdXL-3">
          <mxGeometry x="190" y="20" width="100" height="40" as="geometry" />
        </mxCell>
        <mxCell id="tU8QPCNGm-OaERnpYdXL-6" value="" style="edgeStyle=elbowEdgeStyle;elbow=horizontal;html=1;rounded=1;curved=0;sourcePerimeterSpacing=0;targetPerimeterSpacing=0;startSize=6;endSize=6;" edge="1" parent="tU8QPCNGm-OaERnpYdXL-3" source="tU8QPCNGm-OaERnpYdXL-4" target="tU8QPCNGm-OaERnpYdXL-5">
          <mxGeometry relative="1" as="geometry" />
        </mxCell>
        <mxCell id="tU8QPCNGm-OaERnpYdXL-7" value="愿景" style="whiteSpace=wrap;html=1;" vertex="1" parent="tU8QPCNGm-OaERnpYdXL-3">
          <mxGeometry x="190" y="100" width="100" height="40" as="geometry" />
        </mxCell>
        <mxCell id="tU8QPCNGm-OaERnpYdXL-8" value="" style="edgeStyle=elbowEdgeStyle;elbow=horizontal;html=1;rounded=1;curved=0;sourcePerimeterSpacing=0;targetPerimeterSpacing=0;startSize=6;endSize=6;" edge="1" parent="tU8QPCNGm-OaERnpYdXL-3" source="tU8QPCNGm-OaERnpYdXL-4" target="tU8QPCNGm-OaERnpYdXL-7">
          <mxGeometry relative="1" as="geometry" />
        </mxCell>
        <mxCell id="tU8QPCNGm-OaERnpYdXL-9" value="" style="edgeStyle=elbowEdgeStyle;elbow=horizontal;html=1;rounded=1;curved=0;sourcePerimeterSpacing=0;targetPerimeterSpacing=0;startSize=6;endSize=6;" edge="1" target="tU8QPCNGm-OaERnpYdXL-10" source="tU8QPCNGm-OaERnpYdXL-5" parent="tU8QPCNGm-OaERnpYdXL-3">
          <mxGeometry relative="1" as="geometry">
            <mxPoint x="310" y="190" as="sourcePoint" />
          </mxGeometry>
        </mxCell>
        <mxCell id="tU8QPCNGm-OaERnpYdXL-10" value="帮助1亿人因AI受益" style="whiteSpace=wrap;html=1;" vertex="1" parent="tU8QPCNGm-OaERnpYdXL-3">
          <mxGeometry x="340" y="20" width="100" height="40" as="geometry" />
        </mxCell>
        <mxCell id="tU8QPCNGm-OaERnpYdXL-11" value="" style="edgeStyle=elbowEdgeStyle;elbow=horizontal;html=1;rounded=1;curved=0;sourcePerimeterSpacing=0;targetPerimeterSpacing=0;startSize=6;endSize=6;" edge="1" target="tU8QPCNGm-OaERnpYdXL-12" source="tU8QPCNGm-OaERnpYdXL-4" parent="tU8QPCNGm-OaERnpYdXL-3">
          <mxGeometry relative="1" as="geometry">
            <mxPoint x="310" y="190" as="sourcePoint" />
          </mxGeometry>
        </mxCell>
        <mxCell id="tU8QPCNGm-OaERnpYdXL-12" value="品牌标语" style="whiteSpace=wrap;html=1;" vertex="1" parent="tU8QPCNGm-OaERnpYdXL-3">
          <mxGeometry x="190" y="180" width="100" height="40" as="geometry" />
        </mxCell>
        <mxCell id="tU8QPCNGm-OaERnpYdXL-13" value="" style="edgeStyle=elbowEdgeStyle;elbow=horizontal;html=1;rounded=1;curved=0;sourcePerimeterSpacing=0;targetPerimeterSpacing=0;startSize=6;endSize=6;" edge="1" target="tU8QPCNGm-OaERnpYdXL-14" source="tU8QPCNGm-OaERnpYdXL-7" parent="tU8QPCNGm-OaERnpYdXL-3">
          <mxGeometry relative="1" as="geometry">
            <mxPoint x="310" y="270" as="sourcePoint" />
          </mxGeometry>
        </mxCell>
        <mxCell id="tU8QPCNGm-OaERnpYdXL-14" value="持续传递AI时代的认知和技能" style="whiteSpace=wrap;html=1;" vertex="1" parent="tU8QPCNGm-OaERnpYdXL-3">
          <mxGeometry x="340" y="100" width="100" height="40" as="geometry" />
        </mxCell>
        <mxCell id="tU8QPCNGm-OaERnpYdXL-15" value="" style="edgeStyle=elbowEdgeStyle;elbow=horizontal;html=1;rounded=1;curved=0;sourcePerimeterSpacing=0;targetPerimeterSpacing=0;startSize=6;endSize=6;" edge="1" target="tU8QPCNGm-OaERnpYdXL-16" source="tU8QPCNGm-OaERnpYdXL-4" parent="tU8QPCNGm-OaERnpYdXL-3">
          <mxGeometry relative="1" as="geometry">
            <mxPoint x="310" y="270" as="sourcePoint" />
          </mxGeometry>
        </mxCell>
        <mxCell id="tU8QPCNGm-OaERnpYdXL-16" value="服务客户" style="whiteSpace=wrap;html=1;" vertex="1" parent="tU8QPCNGm-OaERnpYdXL-3">
          <mxGeometry x="190" y="260" width="100" height="40" as="geometry" />
        </mxCell>
        <mxCell id="tU8QPCNGm-OaERnpYdXL-17" value="" style="edgeStyle=elbowEdgeStyle;elbow=horizontal;html=1;rounded=1;curved=0;sourcePerimeterSpacing=0;targetPerimeterSpacing=0;startSize=6;endSize=6;" edge="1" target="tU8QPCNGm-OaERnpYdXL-18" source="tU8QPCNGm-OaERnpYdXL-16" parent="tU8QPCNGm-OaERnpYdXL-3">
          <mxGeometry relative="1" as="geometry">
            <mxPoint x="310" y="390" as="sourcePoint" />
          </mxGeometry>
        </mxCell>
        <mxCell id="tU8QPCNGm-OaERnpYdXL-18" value="AI时代变革的参与者及旁观者" style="whiteSpace=wrap;html=1;" vertex="1" parent="tU8QPCNGm-OaERnpYdXL-3">
          <mxGeometry x="340" y="260" width="100" height="40" as="geometry" />
        </mxCell>
        <mxCell id="tU8QPCNGm-OaERnpYdXL-21" value="" style="edgeStyle=elbowEdgeStyle;elbow=horizontal;html=1;rounded=1;curved=0;sourcePerimeterSpacing=0;targetPerimeterSpacing=0;startSize=6;endSize=6;" edge="1" target="tU8QPCNGm-OaERnpYdXL-22" source="tU8QPCNGm-OaERnpYdXL-12" parent="tU8QPCNGm-OaERnpYdXL-3">
          <mxGeometry relative="1" as="geometry">
            <mxPoint x="310" y="390" as="sourcePoint" />
          </mxGeometry>
        </mxCell>
        <mxCell id="tU8QPCNGm-OaERnpYdXL-22" value="知行合一，驾驭AI" style="whiteSpace=wrap;html=1;" vertex="1" parent="tU8QPCNGm-OaERnpYdXL-3">
          <mxGeometry x="340" y="180" width="100" height="40" as="geometry" />
        </mxCell>
      </root>
    </mxGraphModel>
  </diagram>
</mxfile>
